<!-- dados-qualitativos.svg -->
<svg viewBox="120 40 560 160" xmlns="http://www.w3.org/2000/svg">
  <defs>
    <clipPath id="eyeClip"><ellipse cx="0" cy="0" rx="25" ry="16"/></clipPath>
    <style>
      /* animações */
      @keyframes fadeUp { from { opacity:0; transform: translateY(10px);} to { opacity:1; transform: translateY(0);} }
      @keyframes floatY { 0%,100% { transform: translateY(0);} 50% { transform: translateY(-8px);} }
      @keyframes floatYStrong { 0%,100% { transform: translateY(0);} 50% { transform: translateY(-14px);} }
      @keyframes waveStrong { 0%,100% { transform: rotate(0deg);} 50% { transform: rotate(-4.5deg);} }
      @keyframes pulse { 0%,100% { transform: scale(1);} 50% { transform: scale(1.07);} }
      @keyframes blinkLid { 0%,92%,100% { transform: translateY(-20px);} 94% { transform: translateY(0);} 96% { transform: translateY(-20px);} 98% { transform: translateY(-8px);} }

      .enter { animation: fadeUp .6s ease-out both; transform-box: fill-box; transform-origin: center; }
      .float { animation: floatY 3.2s ease-in-out infinite; transform-box: fill-box; transform-origin: center; }
      .floatStrong { animation: floatYStrong 3.2s ease-in-out infinite .1s; transform-box: fill-box; transform-origin: center; }
      .waveStrong { animation: waveStrong 3.6s ease-in-out infinite .2s; transform-box: fill-box; transform-origin: center; }
      .pulse { animation: pulse 2.6s ease-in-out infinite .1s; transform-box: fill-box; transform-origin: center; }
      .lid { animation: blinkLid 4.8s ease-in-out infinite; transform-box: fill-box; transform-origin: top center; }

      /* rótulos com fonte Etbook */
      .label { font-family: et-book, ETBook, ETBembo, Georgia, serif; font-size:12px; fill:#666; font-weight:500; text-anchor:middle; }
    </style>
  </defs>

  <!-- Óculos -->
  <g transform="translate(180,110)">
    <g class="enter float">
      <ellipse cx="-15" cy="0" rx="18" ry="14" fill="none" stroke="#2c3e50" stroke-width="3"/>
      <ellipse cx="15"  cy="0" rx="18" ry="14" fill="none" stroke="#2c3e50" stroke-width="3"/>
      <line x1="-33" y1="0" x2="-40" y2="-3" stroke="#2c3e50" stroke-width="3" stroke-linecap="round"/>
      <line x1="33"  y1="0" x2="40"  y2="-3" stroke="#2c3e50" stroke-width="3" stroke-linecap="round"/>
      <path d="M -3,0 Q 0,-3 3,0" stroke="#2c3e50" stroke-width="3" fill="none" stroke-linecap="round"/>
    </g>
    <text x="0" y="45" class="label">Usa óculos</text>
  </g>

  <!-- Olho (pálpebra com cor) -->
  <g transform="translate(320,110)">
    <g class="enter float">
      <ellipse cx="0" cy="0" rx="25" ry="16" fill="#fff" stroke="#2c3e50" stroke-width="2.5"/>
      <g clip-path="url(#eyeClip)">
        <rect x="-26" y="-17" width="52" height="34" fill="#ffffff"/>
        <circle cx="0" cy="0" r="10" fill="#3498db"/>
        <circle cx="0" cy="0" r="5" fill="#1a1a1a"/>
        <circle cx="-2" cy="-2" r="2" fill="#ffffff"/>
        <rect class="lid" x="-26" y="-16" width="52" height="32" fill="#f1c8a8"/>
      </g>
    </g>
    <text x="0" y="45" class="label">Olhos azuis</text>
  </g>

  <!-- Estetoscópio (float mais forte + pulse) -->
  <g transform="translate(460,110)">
    <g class="enter floatStrong pulse">
      <path d="M -15,-20 Q -15,0 -8,8" stroke="#e74c3c" stroke-width="4" fill="none" stroke-linecap="round"/>
      <path d="M  15,-20 Q  15,0  8,8" stroke="#e74c3c" stroke-width="4" fill="none" stroke-linecap="round"/>
      <circle cx="-15" cy="-20" r="6" fill="#2c3e50"/>
      <circle cx=" 15" cy="-20" r="6" fill="#2c3e50"/>
      <circle cx="0" cy="12" r="8" fill="#e74c3c"/>
      <circle cx="0" cy="12" r="5" fill="#c0392b"/>
    </g>
    <text x="0" y="45" class="label">Médico</text>
  </g>

  <!-- Bandeira (onda + float mais fortes) -->
  <g transform="translate(600,110)">
    <g class="enter waveStrong floatStrong">
      <rect x="-28" y="-20" width="56" height="40" fill="#009739" rx="2"/>
      <path d="M 0,-10 L 24,0 L 0,10 L -24,0 Z" fill="#fedd00"/>
      <circle cx="0" cy="0" r="8" fill="#012169"/>
      <path d="M -6,-2 Q 0,2 6,-2" stroke="#fff" stroke-width="1.5" fill="none"/>
    </g>
    <text x="0" y="45" class="label">Brasileiro</text>
  </g>
</svg>
