<!-- dados-quantitativos.svg -->
<svg viewBox="120 40 560 160" xmlns="http://www.w3.org/2000/svg" preserveAspectRatio="xMidYMid meet" aria-hidden="true">
  <defs>
    <style>
      .label { font-family: et-book, ETBook, ETBembo, Georgia, serif; font-size:12px; fill:#4b5563; font-weight:500; text-anchor:middle; }

      /* movimentos */
      @keyframes floatY { 0%,100% { transform: translateY(0);} 50% { transform: translateY(-8px);} }
      @keyframes bounce  { 0%,100% { transform: translateY(0);} 50% { transform: translateY(-4px);} }
      @keyframes flicker { 0%,100% { opacity: 1;} 50% { opacity: .6;} }
      @keyframes shimmer { 0% { opacity:.75;} 50% { opacity:1;} 100% { opacity:.75;} }
      @keyframes pulse   { 0%,100% { transform: scale(1);} 50% { transform: scale(1.06);} }

      .float { animation: floatY 3.2s ease-in-out infinite; transform-box: fill-box; transform-origin: center; }
      .flame { animation: flicker 1.4s ease-in-out infinite; }
      .money { animation: shimmer 2s ease-in-out infinite; }
      .scalePulse { animation: pulse 3s ease-in-out infinite; transform-box: fill-box; transform-origin: center; }
      .babyAnim { animation: bounce 2.2s ease-in-out infinite; transform-box: fill-box; transform-origin: center; }
      .babyAnim.delay { animation-delay: .4s; }
      .badge { animation: pulse 2s ease-in-out infinite .4s; transform-box: fill-box; transform-origin: center; }
    </style>
  </defs>

  <!-- Idade (bolo) — tons slate -->
  <g transform="translate(180,130)">
    <g class="float">
      <rect x="-25" y="0" width="50" height="15" fill="#4b5563" rx="2"/>
      <ellipse cx="0" cy="0" rx="25" ry="8" fill="#6b7280"/>
      <path d="M -25,0 Q -18,-3 -12,0 T 0,0 T 12,0 T 25,0" fill="#1f2937"/>
      <rect x="-15" y="-18" width="4" height="18" rx="1" fill="#334155"/>
      <rect x="-3"  y="-18" width="4" height="18" rx="1" fill="#334155"/>
      <rect x="11"  y="-18" width="4" height="18" rx="1" fill="#334155"/>
      <!-- chamas mais discretas (âmbar suave) -->
      <ellipse class="flame" cx="-13" cy="-19" rx="2.5" ry="4" fill="#d97706"/>
      <ellipse class="flame" cx="-1"  cy="-19" rx="2.5" ry="4" fill="#d97706" style="animation-delay:.25s"/>
      <ellipse class="flame" cx="13"  cy="-19" rx="2.5" ry="4" fill="#d97706" style="animation-delay:.5s"/>
      <text x="0" y="12" font-family="Arial, sans-serif" font-size="11" fill="#ffffff" text-anchor="middle" font-weight="bold">25</text>
    </g>
    <text x="0" y="50" class="label">25 anos</text>
  </g>

  <!-- Salário — notas em cinzas -->
  <g transform="translate(320,130)">
    <g class="money float" style="transform-box: fill-box; transform-origin: center;">
      <!-- fallback SMIL de flutuação -->
      <animateTransform attributeName="transform" type="translate" values="0 0; 0 -8; 0 0" dur="3.2s" repeatCount="indefinite"/>
      <rect x="-28" y="-8"  width="56" height="24" rx="2" fill="#6b7280" opacity="0.8"/>
      <rect x="-28" y="-12" width="56" height="24" rx="2" fill="#9ca3af" opacity="0.9"/>
      <rect x="-28" y="-16" width="56" height="24" rx="2" fill="#4b5563"/>
      <circle cx="0" cy="-4" r="8" fill="#f3f4f6" opacity="0.5"/>
      <text x="0" y="0" font-family="Arial, sans-serif" font-size="14" fill="#ffffff" text-anchor="middle" font-weight="bold">R$</text>
      <rect x="-32" y="14" width="64" height="16" rx="2" fill="#1f2937"/>
      <text x="0" y="25" font-family="monospace" font-size="11" fill="#e5e7eb" text-anchor="middle" font-weight="bold">4.500,00</text>
    </g>
    <text x="0" y="50" class="label">Salário</text>
  </g>

  <!-- Balança (Peso) — slate -->
  <g transform="translate(460,130)">
    <g class="float">
      <rect x="-25" y="15" width="50" height="8" rx="2" fill="#6b7280"/>
      <rect x="-28" y="8"  width="56" height="7" rx="2" fill="#9ca3af"/>
      <g class="scalePulse">
        <rect x="-20" y="-18" width="40" height="20" rx="3" fill="#1f2937"/>
        <text x="0" y="-6" font-family="monospace" font-size="12" fill="#ffffff" text-anchor="middle" font-weight="bold">72</text>
        <text x="0" y="4"  font-family="monospace" font-size="8"  fill="#9ca3af" text-anchor="middle">kg</text>
      </g>
      <rect x="-22" y="23" width="6" height="4" rx="1" fill="#6b7280"/>
      <rect x="16"  y="23" width="6" height="4" rx="1" fill="#6b7280"/>
    </g>
    <text x="0" y="50" class="label">Balança</text>
  </g>

  <!-- 2 filhos — cinza (dois bebês) -->
  <g transform="translate(600,130)">
    <g transform="translate(-12,0)">
      <g class="babyAnim">
        <circle cx="0" cy="-12" r="8" fill="#4b5563"/>
        <ellipse cx="0" cy="4" rx="10" ry="12" fill="#4b5563"/>
        <circle cx="-2" cy="-13" r="1.5" fill="#1f2937"/>
        <circle cx="2"  cy="-13" r="1.5" fill="#1f2937"/>
        <path d="M -2,-9 Q 0,-8 2,-9" stroke="#1f2937" stroke-width="1" fill="none"/>
      </g>
    </g>
    <g transform="translate(12,0)">
      <g class="babyAnim delay">
        <circle cx="0" cy="-12" r="8" fill="#4b5563"/>
        <ellipse cx="0" cy="4" rx="10" ry="12" fill="#4b5563"/>
        <circle cx="-2" cy="-13" r="1.5" fill="#1f2937"/>
        <circle cx="2"  cy="-13" r="1.5" fill="#1f2937"/>
        <path d="M -2,-9 Q 0,-8 2,-9" stroke="#1f2937" stroke-width="1" fill="none"/>
      </g>
    </g>
    <g class="badge">
      <circle cx="0" cy="-25" r="10" fill="#ffffff" stroke="#4b5563" stroke-width="2"/>
      <text x="0" y="-20" font-family="Arial, sans-serif" font-size="14" fill="#4b5563" text-anchor="middle" font-weight="bold">2</text>
    </g>
    <text x="0" y="50" class="label">2 filhos</text>
  </g>
</svg>
