<!-- dados-quantitativos.svg -->
<svg viewBox="120 40 560 160" xmlns="http://www.w3.org/2000/svg" preserveAspectRatio="xMidYMid meet" aria-hidden="true">
  <defs>
    <style>
      .label { font-family: et-book, ETBook, ETBembo, Georgia, serif; font-size:12px; fill:#666; font-weight:500; text-anchor:middle; }

      /* movimentos */
      @keyframes floatY { 0%,100% { transform: translateY(0);} 50% { transform: translateY(-8px);} }
      @keyframes bounce  { 0%,100% { transform: translateY(0);} 50% { transform: translateY(-4px);} }
      @keyframes flicker { 0%,100% { opacity: 1;} 50% { opacity: .6;} }
      @keyframes shimmer { 0% { opacity:.75;} 50% { opacity:1;} 100% { opacity:.75;} }
      @keyframes pulse   { 0%,100% { transform: scale(1);} 50% { transform: scale(1.06);} }

      .float { animation: floatY 3.2s ease-in-out infinite; transform-box: fill-box; transform-origin: center; }
      .flame { animation: flicker 1.4s ease-in-out infinite; }
      .money { animation: shimmer 2s ease-in-out infinite; }
      .scalePulse { animation: pulse 3s ease-in-out infinite; transform-box: fill-box; transform-origin: center; }
      .babyAnim { animation: bounce 2.2s ease-in-out infinite; transform-box: fill-box; transform-origin: center; }
      .babyAnim.delay { animation-delay: .4s; }
      .badge { animation: pulse 2s ease-in-out infinite .4s; transform-box: fill-box; transform-origin: center; }
    </style>
  </defs>

  <!-- Idade (bolo) -->
  <g transform="translate(180,130)">
    <g class="float">
      <rect x="-25" y="0" width="50" height="15" fill="#f39c12" rx="2"/>
      <ellipse cx="0" cy="0" rx="25" ry="8" fill="#f8b739"/>
      <path d="M -25,0 Q -18,-3 -12,0 T 0,0 T 12,0 T 25,0" fill="#e74c3c"/>
      <rect x="-15" y="-18" width="4" height="18" rx="1" fill="#3498db"/>
      <rect x="-3"  y="-18" width="4" height="18" rx="1" fill="#3498db"/>
      <rect x="11"  y="-18" width="4" height="18" rx="1" fill="#3498db"/>
      <ellipse class="flame" cx="-13" cy="-19" rx="2.5" ry="4" fill="#f39c12"/>
      <ellipse class="flame" cx="-1"  cy="-19" rx="2.5" ry="4" fill="#f39c12" style="animation-delay:.25s"/>
      <ellipse class="flame" cx="13"  cy="-19" rx="2.5" ry="4" fill="#f39c12" style="animation-delay:.5s"/>
      <text x="0" y="12" font-family="Arial, sans-serif" font-size="11" fill="#fff" text-anchor="middle" font-weight="bold">25</text>
    </g>
    <text x="0" y="50" class="label">25 anos</text>
  </g>

<!-- Salário (com float + fallback SMIL) -->
<g transform="translate(320,130)">
  <!-- wrapper interno recebe a animação -->
  <g class="money float" style="transform-box: fill-box; transform-origin: center; will-change: transform;">
    <!-- Fallback SMIL: se o CSS não mover, este move -->
    <animateTransform attributeName="transform"
                      type="translate"
                      values="0 0; 0 -8; 0 0"
                      dur="3.2s"
                      repeatCount="indefinite"/>
    <rect x="-28" y="-8" width="56" height="24" rx="2" fill="#27ae60" opacity="0.7"/>
    <rect x="-28" y="-12" width="56" height="24" rx="2" fill="#2ecc71" opacity="0.8"/>
    <rect x="-28" y="-16" width="56" height="24" rx="2" fill="#27ae60"/>
    <circle cx="0" cy="-4" r="8" fill="#f8f9fa" opacity="0.3"/>
    <text x="0" y="0" font-family="Arial, sans-serif" font-size="14" fill="#fff" text-anchor="middle" font-weight="bold">R$</text>
    <rect x="-32" y="14" width="64" height="16" rx="2" fill="#2c3e50"/>
    <text x="0" y="25" font-family="monospace" font-size="11" fill="#2ecc71" text-anchor="middle" font-weight="bold">4.500,00</text>
  </g>
  <text x="0" y="50" class="label">Salário</text>
</g>

  <!-- Balança (Peso) -->
  <g transform="translate(460,130)">
    <!-- float no wrapper interno; pulse no display (escala separada) -->
    <g class="float">
      <rect x="-25" y="15" width="50" height="8" rx="2" fill="#7f8c8d"/>
      <rect x="-28" y="8" width="56" height="7" rx="2" fill="#95a5a6"/>
      <g class="scalePulse">
        <rect x="-20" y="-18" width="40" height="20" rx="3" fill="#2c3e50"/>
        <text x="0" y="-6" font-family="monospace" font-size="12" fill="#3498db" text-anchor="middle" font-weight="bold">72</text>
        <text x="0" y="4" font-family="monospace" font-size="8" fill="#95a5a6" text-anchor="middle">kg</text>
      </g>
      <rect x="-22" y="23" width="6" height="4" rx="1" fill="#7f8c8d"/>
      <rect x="16"  y="23" width="6" height="4" rx="1" fill="#7f8c8d"/>
    </g>
    <text x="0" y="50" class="label">Balança</text>
  </g>

  <!-- 2 filhos (bebês já com bounce) -->
  <g transform="translate(600,130)">
    <g transform="translate(-12,0)">
      <g class="babyAnim">
        <circle cx="0" cy="-12" r="8" fill="#9b59b6"/>
        <ellipse cx="0" cy="4" rx="10" ry="12" fill="#9b59b6"/>
        <circle cx="-2" cy="-13" r="1.5" fill="#2c3e50"/>
        <circle cx="2"  cy="-13" r="1.5" fill="#2c3e50"/>
        <path d="M -2,-9 Q 0,-8 2,-9" stroke="#2c3e50" stroke-width="1" fill="none"/>
      </g>
    </g>
    <g transform="translate(12,0)">
      <g class="babyAnim delay">
        <circle cx="0" cy="-12" r="8" fill="#9b59b6"/>
        <ellipse cx="0" cy="4" rx="10" ry="12" fill="#9b59b6"/>
        <circle cx="-2" cy="-13" r="1.5" fill="#2c3e50"/>
        <circle cx="2"  cy="-13" r="1.5" fill="#2c3e50"/>
        <path d="M -2,-9 Q 0,-8 2,-9" stroke="#2c3e50" stroke-width="1" fill="none"/>
      </g>
    </g>
    <g class="badge">
      <circle cx="0" cy="-25" r="10" fill="#fff" stroke="#9b59b6" stroke-width="2"/>
      <text x="0" y="-20" font-family="Arial, sans-serif" font-size="14" fill="#9b59b6" text-anchor="middle" font-weight="bold">2</text>
    </g>
    <text x="0" y="50" class="label">2 filhos</text>
  </g>
</svg>
