<svg viewBox="0 0 1200 420" xmlns="http://www.w3.org/2000/svg" role="img" aria-labelledby="title desc">
    <title id="title">Inferir a média populacional (μ) a partir da amostra</title>
    <desc id="desc">Amostra à esquerda com pontos e x̄; seta para a População à direita com curva e μ.</desc>
    <defs>
      <style>
        text{font-family:"et-book","ETBook","Georgia",serif;fill:#111827}
        .stroke{stroke:#111827;fill:none;stroke-linecap:round;stroke-linejoin:round}
        .card{stroke-width:3;rx:16}
        .h{font-weight:700;font-size:34px;text-anchor:middle;letter-spacing:.5px}
        .sub{font-size:18px;text-anchor:middle;opacity:.85}
      </style>
      <marker id="arrow" markerWidth="10" markerHeight="10" refX="9" refY="5" orient="auto" markerUnits="strokeWidth">
        <path d="M0,0 10,5 0,10Z" fill="#111827"/>
      </marker>
    </defs>

    <!-- Grupo animado -->
    <g id="animated-group">
      <!-- AMOSTRA -->
      <g>
        <rect x="80" y="60" width="400" height="300" class="card stroke"/>
        <text x="280" y="105" class="h">AMOSTRA</text>
        <text x="280" y="130" class="sub">dados observados</text>

        <!-- Área de pontos com margem interna -->
        <rect x="110" y="160" width="340" height="160" class="stroke" rx="10"/>
        <g fill="#111827">
          <!-- Linha 1 -->
          <circle cx="140" cy="190" r="5"/><circle cx="175" cy="190" r="5"/><circle cx="210" cy="190" r="5"/><circle cx="245" cy="190" r="5"/><circle cx="280" cy="190" r="5"/><circle cx="315" cy="190" r="5"/><circle cx="350" cy="190" r="5"/><circle cx="385" cy="190" r="5"/>
          <!-- Linha 2 -->
          <circle cx="155" cy="225" r="5"/><circle cx="190" cy="225" r="5"/><circle cx="225" cy="225" r="5"/><circle cx="260" cy="225" r="5"/><circle cx="295" cy="225" r="5"/><circle cx="330" cy="225" r="5"/><circle cx="365" cy="225" r="5"/>
          <!-- Linha 3 -->
          <circle cx="140" cy="260" r="5"/><circle cx="175" cy="260" r="5"/><circle cx="210" cy="260" r="5"/><circle cx="245" cy="260" r="5"/><circle cx="280" cy="260" r="5"/><circle cx="315" cy="260" r="5"/><circle cx="350" cy="260" r="5"/><circle cx="385" cy="260" r="5"/>
        </g>
        <!-- Média x̄ -->
        <line x1="280" y1="160" x2="280" y2="320" class="stroke"/>
        <text x="280" y="152" font-size="22" text-anchor="middle">x̄</text>
      </g>

      <!-- POPULAÇÃO -->
      <g>
        <rect x="720" y="60" width="400" height="300" class="card stroke"/>
        <text x="920" y="105" class="h">POPULAÇÃO</text>
        <text x="920" y="130" class="sub">parâmetro de interesse</text>

        <!-- Eixo e curva -->
        <line x1="750" y1="290" x2="1090" y2="290" class="stroke"/>
        <path d="M750,290 C800,180 1040,180 1090,290" class="stroke" stroke-width="3"/>
        <!-- Média μ -->
        <line x1="920" y1="250" x2="920" y2="320" class="stroke"/>
        <circle cx="920" cy="290" r="6" fill="#111827"/>
        <text x="920" y="242" font-size="22" text-anchor="middle">μ</text>
      </g>

      <!-- Seta e rótulo -->
      <g>
        <line x1="490" y1="210" x2="710" y2="210" class="stroke" stroke-width="3" marker-end="url(#arrow)"/>
        <text x="600" y="198" class="sub" font-size="20" text-anchor="middle">inferir média (μ)</text>
      </g>
    </g>
  </svg>
